<svg width="74" height="86" viewBox="0 0 74 86" xmlns="http://www.w3.org/2000/svg"><g fill="none" fill-rule="evenodd"><path d="M47.787 74.034s5.148-1.67 10.591-.816c5.445.853 10.37 3.782 10.37 3.782l-7.555-5.785-12.369-3.263-1.037 6.082zM42.825 1.35s5.851 5.637 5.925 14.833c.074 9.198-4.592 14.463-4.592 14.463s4.963 3.634 9.332 3.857c4.37.223 7.629-.742 7.629-.742S64.007 8.174 42.825 1.35M60.6 33.984c3.273 0 5.926 3.32 5.926 7.416s-2.653 7.417-5.925 7.417" fill="#ECECEC"/><path d="M60.6 33.984c3.273 0 5.926 3.32 5.926 7.416s-2.653 7.417-5.925 7.417" stroke="#4A4A4A" stroke-width="1.4" stroke-linecap="round" stroke-linejoin="round"/><path d="M71.297 79.902c.753 1.442 1.153 2.955 1.153 4.515M1.942 81.163C4.995 72.886 19.486 66.617 36.9 66.617c13.817 0 25.793 3.947 31.676 9.711" stroke="#4A4A4A" stroke-width="2.1" stroke-linecap="round" stroke-linejoin="round"/><path d="M48.75 69.584c0 6.554-5.305 11.866-11.85 11.866s-11.85-5.312-11.85-11.866c0-6.555 5.305-11.867 11.85-11.867s11.85 5.312 11.85 11.867" fill="#ECECEC"/><path d="M48.75 69.584c0 6.554-5.305 11.866-11.85 11.866s-11.85-5.312-11.85-11.866c0-6.555 5.305-11.867 11.85-11.867s11.85 5.312 11.85 11.867z" stroke="#4A4A4A" stroke-width="1.4" stroke-linecap="round" stroke-linejoin="round"/><path d="M60.6 45.85c0 13.108-10.61 23.734-23.7 23.734S13.2 58.958 13.2 45.85" fill="#FFF"/><path d="M36.9 69.584c-13.035 0-23.7-10.68-23.7-23.734V33.984S5.185 31.69 3.028 21.919C.955 12.524 5.892 6.394 5.892 6.394 21.988 7.482 23.865 1.35 36.9 1.35c13.036 0 23.7 10.68 23.7 23.734V45.85c0 13.054-10.664 23.734-23.7 23.734z" stroke="#4A4A4A" stroke-width="2.1" stroke-linecap="round" stroke-linejoin="round"/><path d="M44.36 30.498c2.157 1.583 8.271 5.299 16.142 3.486m-47.562-.371s7.987 2.398 16.184 1.112c5.528-.867 10.147-2.792 12.568-3.952M13.2 48.817c-1.119 0-2.165-.388-3.057-1.062-1.719-1.298-2.868-3.659-2.868-6.355 0-4.096 2.653-7.416 5.925-7.416" stroke="#4A4A4A" stroke-width="1.4" stroke-linecap="round" stroke-linejoin="round"/><path d="M21.59 41.107c1.064-.027 2.233-.004 3.46-.004 4.909 0 8.887-.371 8.887 3.56 0 3.933-3.978 7.12-8.887 7.12-4.909 0-8.887-3.187-8.887-7.12 0-2.255 1.308-3.094 3.351-3.4" fill="#ECECEC"/><path d="M21.59 41.107c1.064-.027 2.233-.004 3.46-.004 4.909 0 8.887-.371 8.887 3.56 0 3.933-3.978 7.12-8.887 7.12-4.909 0-8.887-3.187-8.887-7.12 0-2.255 1.308-3.094 3.351-3.4" stroke="#4A4A4A" stroke-width="1.4" stroke-linecap="round" stroke-linejoin="round"/><path d="M57.638 44.664c0 3.932-3.979 7.12-8.887 7.12-4.909 0-8.889-3.188-8.889-7.12 0-3.933 3.98-3.56 8.889-3.56 4.908 0 8.887-.373 8.887 3.56" fill="#ECECEC"/><path d="M57.638 44.664c0 3.932-3.979 7.12-8.887 7.12-4.909 0-8.889-3.188-8.889-7.12 0-3.933 3.98-3.56 8.889-3.56 4.908 0 8.887-.373 8.887 3.56zm0-1.78l2.962-8.9m-44.438 8.9l-2.962-8.9M33.938 45.85h5.925" stroke="#4A4A4A" stroke-width="1.4" stroke-linecap="round" stroke-linejoin="round"/><path d="M49.047 47.334a1.779 1.779 0 1 1-3.556 0 1.779 1.779 0 0 1 3.555 0m-20.737 0a1.779 1.779 0 1 1-3.556 0 1.779 1.779 0 0 1 3.555 0" fill="#4A4A4A"/><path d="M36.9 54.75a2.964 2.964 0 0 1-2.962-2.966" stroke="#4A4A4A" stroke-width="1.4" stroke-linecap="round" stroke-linejoin="round"/><path d="M43.566 57.928a9.387 9.387 0 0 1-13.288 0" stroke="#4A4A4A" stroke-width="2.1" stroke-linecap="round" stroke-linejoin="round"/><path d="M42.825 38.137h8.888m-29.626 0h8.888" stroke="#4A4A4A" stroke-width="1.4" stroke-linecap="round" stroke-linejoin="round"/></g></svg>